{"accessors":[{"name":"Human_BaseMesh_1_positions","componentType":5126,"count":1732,"min":[-34.185062408447266,1.1903049945831299,-37.899879455566406],"max":[30.83038902282715,185.11566162109375,45.936004638671875],"type":"VEC3","bufferView":0,"byteOffset":0},{"name":"Human_BaseMesh_1_normals","componentType":5126,"count":1732,"min":[-0.998649001121521,-0.9777430295944214,-0.9994540214538574],"max":[0.9998250007629395,0.9449189901351929,0.9904800057411194],"type":"VEC3","bufferView":0,"byteOffset":20784},{"name":"Human_BaseMesh_1_texcoords","componentType":5126,"count":1732,"min":[0.008658000268042088,0.00020500000391621143],"max":[0.9991739988327026,0.9997950196266174],"type":"VEC2","bufferView":1,"byteOffset":0},{"name":"Human_BaseMesh_1_0_indices","componentType":5123,"count":3216,"min":[0],"max":[1731],"type":"SCALAR","bufferView":2,"byteOffset":0}],"asset":{"generator":"obj2gltf","version":"2.0"},"buffers":[{"name":"input","byteLength":61856,"uri":"data:application/octet-stream;base64,"}],"bufferViews":[{"name":"bufferView_0","buffer":0,"byteLength":41568,"byteOffset":0,"byteStride":12,"target":34962},{"name":"bufferView_1","buffer":0,"byteLength":13856,"byteOffset":41568,"byteStride":8,"target":34962},{"name":"bufferView_2","buffer":0,"byteLength":6432,"byteOffset":55424,"target":34963}],"materials":[{"name":"Human_BaseMeshSG","pbrMetallicRoughness":{"baseColorFactor":[0.5,0.5,0.5,1],"metallicFactor":0,"roughnessFactor":1},"emissiveFactor":[0,0,0],"alphaMode":"OPAQUE","doubleSided":false}],"meshes":[{"name":"Human_BaseMesh_1","primitives":[{"attributes":{"POSITION":0,"NORMAL":1,"TEXCOORD_0":2},"indices":3,"material":0,"mode":4}]}],"nodes":[{"name":"Human_BaseMesh","mesh":0}],"scene":0,"scenes":[{"nodes":[0]}]}
