{"accessors":[{"name":"Human_BaseMesh_1_positions","componentType":5126,"count":8558,"min":[-31.993057250976562,-0.6321790218353271,-39.89280700683594],"max":[34.799617767333984,185.6974334716797,47.41494369506836],"type":"VEC3","bufferView":0,"byteOffset":0},{"name":"Human_BaseMesh_1_normals","componentType":5126,"count":8558,"min":[-0.9999229907989502,-0.9999669790267944,-0.9994649887084961],"max":[0.9999290108680725,0.9999939799308777,0.9998270273208618],"type":"VEC3","bufferView":0,"byteOffset":102696},{"name":"Human_BaseMesh_1_texcoords","componentType":5126,"count":8558,"min":[0.00020500000391621143,0.00020500000391621143],"max":[0.9991739988327026,0.9997950196266174],"type":"VEC2","bufferView":1,"byteOffset":0},{"name":"Human_BaseMesh_1_0_indices","componentType":5123,"count":20304,"min":[0],"max":[8557],"type":"SCALAR","bufferView":2,"byteOffset":0}],"asset":{"generator":"obj2gltf","version":"2.0"},"buffers":[{"name":"input","byteLength":314464,"uri":"data:application/octet-stream;base64,"}],"bufferViews":[{"name":"bufferView_0","buffer":0,"byteLength":205392,"byteOffset":0,"byteStride":12,"target":34962},{"name":"bufferView_1","buffer":0,"byteLength":68464,"byteOffset":205392,"byteStride":8,"target":34962},{"name":"bufferView_2","buffer":0,"byteLength":40608,"byteOffset":273856,"target":34963}],"materials":[{"name":"Human_BaseMeshSG","pbrMetallicRoughness":{"baseColorFactor":[0.5,0.5,0.5,1],"metallicFactor":0,"roughnessFactor":1},"emissiveFactor":[0,0,0],"alphaMode":"OPAQUE","doubleSided":false}],"meshes":[{"name":"Human_BaseMesh_1","primitives":[{"attributes":{"POSITION":0,"NORMAL":1,"TEXCOORD_0":2},"indices":3,"material":0,"mode":4}]}],"nodes":[{"name":"Human_BaseMesh","mesh":0}],"scene":0,"scenes":[{"nodes":[0]}]}
